<svg width="150" height="116" viewBox="0 0 150 116" fill="none" xmlns="http://www.w3.org/2000/svg">
<path d="M82 18.5L75 11.5L68 18.5" stroke="white" stroke-width="3" stroke-linecap="round" stroke-linejoin="round"/>
<path d="M68 97.5L75 104.5L82 97.5" stroke="white" stroke-width="3" stroke-linecap="round" stroke-linejoin="round"/>
<path d="M36.0832 76V74.2L50.8832 59.5C52.2832 58.1 53.3332 56.8833 54.0332 55.85C54.7332 54.7833 55.1999 53.8 55.4332 52.9C55.6999 52 55.8332 51.1167 55.8332 50.25C55.8332 48.05 55.0832 46.3167 53.5832 45.05C52.0832 43.75 49.8832 43.1 46.9832 43.1C44.7832 43.1 42.8499 43.4333 41.1832 44.1C39.5499 44.7667 38.1332 45.7833 36.9332 47.15L35.1332 45.55C36.4665 44.0167 38.1499 42.8333 40.1832 42C42.2499 41.1667 44.5832 40.75 47.1832 40.75C49.4832 40.75 51.4665 41.1333 53.1332 41.9C54.8332 42.6333 56.1332 43.7 57.0332 45.1C57.9665 46.4667 58.4332 48.1 58.4332 50C58.4332 51.1333 58.2665 52.25 57.9332 53.35C57.6332 54.4167 57.0665 55.55 56.2332 56.75C55.4332 57.95 54.2665 59.3167 52.7332 60.85L38.8332 74.7L37.9832 73.7H60.1332V76H36.0832ZM78.5105 76.25C75.8439 76.25 73.4772 75.5333 71.4105 74.1C69.3439 72.6667 67.7272 70.6333 66.5605 68C65.3939 65.3333 64.8105 62.1667 64.8105 58.5C64.8105 54.8333 65.3939 51.6833 66.5605 49.05C67.7272 46.3833 69.3439 44.3333 71.4105 42.9C73.4772 41.4667 75.8439 40.75 78.5105 40.75C81.2105 40.75 83.5772 41.4667 85.6105 42.9C87.6772 44.3333 89.2939 46.3833 90.4605 49.05C91.6272 51.6833 92.2105 54.8333 92.2105 58.5C92.2105 62.1667 91.6272 65.3333 90.4605 68C89.2939 70.6333 87.6772 72.6667 85.6105 74.1C83.5772 75.5333 81.2105 76.25 78.5105 76.25ZM78.5105 73.9C80.7439 73.9 82.6939 73.3 84.3605 72.1C86.0272 70.8667 87.3272 69.1 88.2605 66.8C89.1939 64.5 89.6605 61.7333 89.6605 58.5C89.6605 55.2333 89.1939 52.4667 88.2605 50.2C87.3272 47.9 86.0272 46.15 84.3605 44.95C82.6939 43.7167 80.7439 43.1 78.5105 43.1C76.3105 43.1 74.3605 43.7167 72.6605 44.95C70.9939 46.15 69.6939 47.9 68.7605 50.2C67.8272 52.4667 67.3605 55.2333 67.3605 58.5C67.3605 61.7333 67.8272 64.5 68.7605 66.8C69.6939 69.1 70.9939 70.8667 72.6605 72.1C74.3605 73.3 76.3105 73.9 78.5105 73.9Z" fill="white"/>
<path d="M105.66 54.55C104.06 54.55 102.61 54.2167 101.31 53.55C100.043 52.85 99.0435 51.9 98.3102 50.7C97.6102 49.5 97.2602 48.15 97.2602 46.65C97.2602 45.0833 97.6102 43.7167 98.3102 42.55C99.0435 41.35 100.043 40.4167 101.31 39.75C102.61 39.0833 104.06 38.75 105.66 38.75C107.293 38.75 108.743 39.0833 110.01 39.75C111.31 40.4167 112.31 41.35 113.01 42.55C113.743 43.7167 114.11 45.0833 114.11 46.65C114.11 48.15 113.743 49.5 113.01 50.7C112.31 51.9 111.31 52.85 110.01 53.55C108.743 54.2167 107.293 54.55 105.66 54.55ZM105.66 52.85C107.56 52.85 109.127 52.2833 110.36 51.15C111.593 49.9833 112.21 48.4833 112.21 46.65C112.21 44.7833 111.593 43.2833 110.36 42.15C109.127 40.9833 107.56 40.4 105.66 40.4C103.793 40.4 102.243 40.9833 101.01 42.15C99.7768 43.2833 99.1602 44.7833 99.1602 46.65C99.1602 48.4833 99.7768 49.9833 101.01 51.15C102.243 52.2833 103.793 52.85 105.66 52.85Z" fill="white" fill-opacity="0.4"/>
</svg>
